<?xml version="1.0" encoding="UTF-8" standalone="no"?>
<!DOCTYPE svg PUBLIC "-//W3C//DTD SVG 1.1//EN" "http://www.w3.org/Graphics/SVG/1.1/DTD/svg11.dtd">
<svg width="100%" height="100%" viewBox="0 0 1808 694" version="1.1" xmlns="http://www.w3.org/2000/svg" xmlns:xlink="http://www.w3.org/1999/xlink" xml:space="preserve" xmlns:serif="http://www.serif.com/" style="fill-rule:evenodd;clip-rule:evenodd;stroke-linejoin:round;stroke-miterlimit:2;">
    <g transform="matrix(1.17034,0,0,1.17034,-532.527,-992.426)">
        <g transform="matrix(0.417599,0,0,0.417599,1322.21,199.104)">
            <path d="M814.909,2042.39L814.909,2019.15L814.91,1741.93C845.204,1736.55 876.383,1733.75 908.21,1733.75C1122.64,1733.75 1307.59,1861 1391.6,2044.04C1283.02,2058.45 1199.12,2151.51 1199.12,2264.01C1199.12,2264.14 1199.12,2264.26 1199.12,2264.39L1199.12,2486.69L1328.42,2486.69L1328.42,2264.39C1328.42,2264.26 1328.42,2264.14 1328.42,2264.01C1328.42,2212.89 1369.92,2171.39 1421.03,2171.39C1424.6,2171.39 1428.13,2171.6 1431.59,2171.99C1436.97,2202.29 1439.77,2233.48 1439.77,2265.32C1439.77,2558.69 1201.59,2796.88 908.21,2796.88C614.832,2796.88 376.646,2558.69 376.646,2265.32C376.646,2051.4 503.281,1866.82 685.611,1782.53L685.611,2264.01C685.611,2386.48 785.045,2485.92 907.521,2485.92C1030,2485.92 1129.43,2386.48 1129.43,2264.01C1129.43,2153.14 1047.95,2061.16 941.665,2044.71C930.573,2043.01 919.212,2042.39 907.646,2042.39L814.909,2042.39ZM941.665,2177.9C975.903,2191.5 1000.14,2224.95 1000.14,2264.01C1000.14,2315.12 958.637,2356.62 907.521,2356.62C856.405,2356.62 814.905,2315.12 814.905,2264.01L814.91,2264.01L814.909,2264L814.909,2171.69L907.641,2171.69L907.646,2171.69L907.646,2171.69C919.605,2171.69 930.122,2174.77 941.665,2177.9Z" style="fill:rgb(0,120,186);"/>
        </g>
        <g transform="matrix(-1.83697e-16,1,1,1.83697e-16,-136.042,-807.293)">
            <path d="M1860.27,1851.49L1915.89,1851.49C1914.58,1846.67 1913.29,1842.28 1913.29,1837.29L1913.29,1837.29L1913.29,1837.28L1913.29,1798.56L1859.3,1798.56L1859.3,1837.29C1859.3,1842.12 1859.55,1846.86 1860.27,1851.49Z" style="fill:url(#_Linear1);"/>
        </g>
        <g transform="matrix(1.2639,0,0,1.2639,-631.434,-1050.74)">
            <path d="M1465.53,1804.28C1456.5,1808.35 1446.52,1810.64 1436.01,1810.68C1435.91,1810.68 1435.81,1810.68 1435.71,1810.68C1435.61,1810.68 1435.51,1810.68 1435.41,1810.68C1395.19,1810.52 1362.52,1777.45 1362.52,1737.19L1362.52,1663.7L1405.89,1663.7L1405.89,1737.19C1405.89,1753.76 1419.15,1767.01 1435.71,1767.31C1451.98,1767.01 1465.53,1753.76 1465.53,1737.19L1465.53,1663.7L1465.53,1663.7L1510.1,1663.7C1510.1,1663.7 1510.11,1784.04 1510.11,1806.94C1510.11,1810.65 1509.66,1814.35 1508.77,1817.95C1500.78,1850.46 1471.74,1874.53 1437.22,1874.53L1435.41,1874.53C1398.06,1874.53 1367.34,1846.82 1362.52,1810.68L1406.8,1810.68C1411.01,1822.43 1422.16,1830.86 1435.41,1830.86L1437.22,1830.86C1448.13,1830.86 1457.76,1824.87 1463.05,1815.96C1464.66,1813.23 1465.51,1810.11 1465.51,1806.93C1465.53,1805.54 1465.53,1804.28 1465.53,1804.28ZM995.375,1643.52C982.123,1643.52 970.979,1651.95 967.063,1663.7L1002.9,1663.7L1002.9,1707.37L965.256,1707.37L965.256,1810.98L921.885,1810.98L921.885,1673.64C921.885,1632.98 954.715,1599.85 995.375,1599.85L1002.9,1599.85L1002.9,1643.52L995.375,1643.52ZM1094.47,1663.7C1134.83,1663.7 1167.96,1696.83 1167.96,1737.19C1167.96,1742.91 1167.35,1748.34 1166.15,1753.46L1061.64,1753.46C1067.06,1761.89 1076.39,1767.31 1086.94,1767.31L1094.47,1767.31C1101.69,1767.31 1108.32,1764.6 1113.44,1760.38L1164.04,1760.38C1154.4,1789.6 1126.69,1810.68 1094.47,1810.68L1086.94,1810.68C1046.28,1810.68 1013.45,1777.85 1013.45,1737.19C1013.45,1696.83 1046.28,1663.7 1086.94,1663.7L1094.47,1663.7ZM1061.64,1721.23L1119.46,1721.23C1114.34,1712.8 1105.01,1707.37 1094.47,1707.37L1086.94,1707.37C1076.39,1707.37 1067.06,1712.8 1061.64,1721.23ZM1266.75,1663.7C1307.1,1663.7 1340.24,1696.83 1340.24,1737.19L1340.24,1810.68L1296.56,1810.68L1296.56,1737.19C1296.56,1720.93 1283.01,1707.37 1266.75,1707.37L1259.21,1707.37C1242.65,1707.37 1229.1,1720.93 1229.1,1737.19L1229.1,1810.68L1185.73,1810.68L1185.73,1737.19C1185.73,1696.83 1218.56,1663.7 1259.21,1663.7L1266.75,1663.7ZM1622.75,1737.19L1670.94,1810.68L1618.83,1810.68L1596.85,1776.95L1574.56,1810.68L1522.75,1810.68L1570.64,1737.19L1522.75,1663.7L1574.56,1663.7L1596.85,1697.43L1618.83,1663.7L1670.94,1663.7L1622.75,1737.19Z" style="fill:rgb(93,107,114);"/>
        </g>
    </g>
    <defs>
        <linearGradient id="_Linear1" x1="0" y1="0" x2="1" y2="0" gradientUnits="userSpaceOnUse" gradientTransform="matrix(-1.93785e-14,105.492,105.492,1.93785e-14,1886.68,1746.54)"><stop offset="0" style="stop-color:rgb(0,120,186);stop-opacity:1"/><stop offset="1" style="stop-color:rgb(0,120,186);stop-opacity:0"/></linearGradient>
    </defs>
</svg>
